[img]http://www.hotimg.com/direct/FmssMxV.jpg[/img]
[code]
Warrior 2011 TS XviD - MiSTERE

Plot:
The youngest son (Hardy) of an alcoholic former boxer (Nolte) returns home, where he's trained by his father for competition in a mixed martial arts tournament
 
http://www.imdb.com/title/tt1291584/

Video
ID                               : 0
Format                           : MPEG-4 Visual
Format profile                   : Advanced Simple@L5
Format settings, BVOP            : 2
Format settings, QPel            : No
Format settings, GMC             : No warppoints
Format settings, Matrix          : Default (H.263)
Muxing mode                      : Packed bitstream
Codec ID                         : XVID
Codec ID/Hint                    : XviD
Duration                         : 2h 7mn
Bit rate                         : 2 102 Kbps
Width                            : 720 pixels
Height                           : 288 pixels
Display aspect ratio             : 2.500
Frame rate                       : 25.000 fps
Color space                      : YUV
Chroma subsampling               : 4:2:0
Bit depth                        : 8 bits
Scan type                        : Progressive
Compression mode                 : Lossy
Bits/(Pixel*Frame)               : 0.405
Stream size                      : 1.87 GiB (94%)
Writing library                  : XviD 64

Audio
ID                               : 1
Format                           : MPEG Audio
Format version                   : Version 1
Format profile                   : Layer 3
Mode                             : Joint stereo
Mode extension                   : MS Stereo
Codec ID                         : 55
Codec ID/Hint                    : MP3
Duration                         : 2h 7mn
Bit rate mode                    : Constant
Bit rate                         : 128 Kbps
Channel(s)                       : 2 channels
Sampling rate                    : 44.1 KHz
Compression mode                 : Lossy
Stream size                      : 117 MiB (6%)
Alignment                        : Split accross interleaves
Interleave, duration             : 40 ms (1.00 video frame)


Thanks to TNZ for the 720p 
Cropped Resized and Tweaked RGB
[/code]
Screens:
[img]http://www.hotimg.com/direct/hkAARzX.png[/img]
[img]http://www.hotimg.com/direct/mSNHf5h.png[/img]
[img]http://www.hotimg.com/direct/K5E3Yny.png[/img]
[img]http://www.hotimg.com/direct/f4nrRz9.png[/img]
[img]http://www.hotimg.com/direct/qemFfuy.png[/img]